HIERARCHY
ROOT pelvis
{
	OFFSET 0.003123 -0.351407 0.012037
	CHANNELS 6 Xposition Yposition Zposition Zrotation Yrotation Xrotation 
	JOINT left_hip
	{
		OFFSET 0.058189 -0.092763 -0.026001
		CHANNELS 3 Zrotation Yrotation Xrotation
		JOINT left_knee
		{
			OFFSET 0.054695 -0.378753 -0.009396
			CHANNELS 3 Zrotation Yrotation Xrotation
			JOINT left_ankle
			{
				OFFSET -0.043453 -0.403059 -0.031876
				CHANNELS 3 Zrotation Yrotation Xrotation
				JOINT left_foot
				{
					OFFSET 0.047257 -0.057997 0.118216
					CHANNELS 3 Zrotation Yrotation Xrotation
					End Site
					{
						OFFSET 0.000000 0.000000 0.000000
					}
				}
			}
		}
	}
	JOINT right_hip
	{
		OFFSET -0.063267 -0.103908 -0.021250
		CHANNELS 3 Zrotation Yrotation Xrotation
		JOINT right_knee
		{
			OFFSET -0.044210 -0.362380 -0.016824
			CHANNELS 3 Zrotation Yrotation Xrotation
			JOINT right_ankle
			{
				OFFSET 0.015417 -0.410728 -0.020192
				CHANNELS 3 Zrotation Yrotation Xrotation
				JOINT right_foot
				{
					OFFSET -0.038812 -0.058328 0.119049
					CHANNELS 3 Zrotation Yrotation Xrotation
					End Site
					{
						OFFSET 0.000000 0.000000 0.000000
					}
				}
			}
		}
	}
	JOINT spine_1
	{
		OFFSET -0.002763 0.109891 -0.027618
		CHANNELS 3 Zrotation Yrotation Xrotation
		JOINT spine_2
		{
			OFFSET 0.009448 0.131853 -0.005940
			CHANNELS 3 Zrotation Yrotation Xrotation
			JOINT spine_3
			{
				OFFSET -0.011330 0.052235 0.028447
				CHANNELS 3 Zrotation Yrotation Xrotation
				JOINT neck
				{
					OFFSET -0.012164 0.165167 -0.031615
					CHANNELS 3 Zrotation Yrotation Xrotation
					JOINT head
					{
						OFFSET 0.024783 0.160452 0.020737
						CHANNELS 3 Zrotation Yrotation Xrotation
						End Site
						{
							OFFSET 0.000000 0.000000 0.000000
						}
					}
				}
				JOINT left_collar
				{
					OFFSET 0.046364 0.084944 -0.007220
					CHANNELS 3 Zrotation Yrotation Xrotation
					JOINT left_shoulder
					{
						OFFSET 0.119239 0.057728 -0.015461
						CHANNELS 3 Zrotation Yrotation Xrotation
						JOINT left_elbow
						{
							OFFSET 0.254123 -0.072151 -0.042459
							CHANNELS 3 Zrotation Yrotation Xrotation
							JOINT left_wrist
							{
								OFFSET 0.251987 0.023221 -0.002472
								CHANNELS 3 Zrotation Yrotation Xrotation
								JOINT left_index_1
								{
									OFFSET 0.101902 -0.008688 0.019351
									CHANNELS 3 Zrotation Yrotation Xrotation
									JOINT left_index_2
									{
										OFFSET 0.030149 -0.011154 0.001151
										CHANNELS 3 Zrotation Yrotation Xrotation
										JOINT left_index_3
										{
											OFFSET 0.006504 -0.021577 -0.002433
											CHANNELS 3 Zrotation Yrotation Xrotation
											End Site
											{
												OFFSET 0.000000 0.000000 0.000000
											}
										}
									}
								}
								JOINT left_middle_1
								{
									OFFSET 0.109398 -0.006328 -0.003981
									CHANNELS 3 Zrotation Yrotation Xrotation
									JOINT left_middle_2
									{
										OFFSET 0.026472 -0.015218 -0.004641
										CHANNELS 3 Zrotation Yrotation Xrotation
										JOINT left_middle_3
										{
											OFFSET 0.005022 -0.023347 -0.001911
											CHANNELS 3 Zrotation Yrotation Xrotation
											End Site
											{
												OFFSET 0.000000 0.000000 0.000000
											}
										}
									}
								}
								JOINT left_pinky_1
								{
									OFFSET 0.084047 -0.014539 -0.043750
									CHANNELS 3 Zrotation Yrotation Xrotation
									JOINT left_pinky_2
									{
										OFFSET 0.012124 -0.014448 -0.005375
										CHANNELS 3 Zrotation Yrotation Xrotation
										JOINT left_pinky_3
										{
											OFFSET 0.003798 -0.018853 0.000167
											CHANNELS 3 Zrotation Yrotation Xrotation
											End Site
											{
												OFFSET 0.000000 0.000000 0.000000
											}
										}
									}
								}
								JOINT left_ring_1
								{
									OFFSET 0.097444 -0.009268 -0.027345
									CHANNELS 3 Zrotation Yrotation Xrotation
									JOINT left_ring_2
									{
										OFFSET 0.023561 -0.016057 -0.001895
										CHANNELS 3 Zrotation Yrotation Xrotation
										JOINT left_ring_3
										{
											OFFSET 0.004257 -0.023548 0.000814
											CHANNELS 3 Zrotation Yrotation Xrotation
											End Site
											{
												OFFSET 0.000000 0.000000 0.000000
											}
										}
									}
								}
								JOINT left_thumb_1
								{
									OFFSET 0.040636 -0.017977 0.025611
									CHANNELS 3 Zrotation Yrotation Xrotation
									JOINT left_thumb_2
									{
										OFFSET 0.021637 -0.017639 0.011623
										CHANNELS 3 Zrotation Yrotation Xrotation
										JOINT left_thumb_3
										{
											OFFSET 0.024002 -0.008356 0.006548
											CHANNELS 3 Zrotation Yrotation Xrotation
											End Site
											{
												OFFSET 0.000000 0.000000 0.000000
											}
										}
									}
								}
							}
						}
					}
				}
				JOINT right_collar
				{
					OFFSET -0.047695 0.084339 -0.013400
					CHANNELS 3 Zrotation Yrotation Xrotation
					JOINT right_shoulder
					{
						OFFSET -0.102578 0.053524 -0.012669
						CHANNELS 3 Zrotation Yrotation Xrotation
						JOINT right_elbow
						{
							OFFSET -0.271150 -0.036492 -0.026467
							CHANNELS 3 Zrotation Yrotation Xrotation
							JOINT right_wrist
							{
								OFFSET -0.249267 -0.004533 -0.015325
								CHANNELS 3 Zrotation Yrotation Xrotation
								JOINT right_index_1
								{
									OFFSET -0.099881 -0.011783 0.019600
									CHANNELS 3 Zrotation Yrotation Xrotation
									JOINT right_index_2
									{
										OFFSET -0.030148 -0.011154 0.001151
										CHANNELS 3 Zrotation Yrotation Xrotation
										JOINT right_index_3
										{
											OFFSET -0.006505 -0.021577 -0.002432
											CHANNELS 3 Zrotation Yrotation Xrotation
											End Site
											{
												OFFSET 0.000000 0.000000 0.000000
											}
										}
									}
								}
								JOINT right_middle_1
								{
									OFFSET -0.107376 -0.009422 -0.003734
									CHANNELS 3 Zrotation Yrotation Xrotation
									JOINT right_middle_2
									{
										OFFSET -0.026472 -0.015218 -0.004641
										CHANNELS 3 Zrotation Yrotation Xrotation
										JOINT right_middle_3
										{
											OFFSET -0.005022 -0.023347 -0.001911
											CHANNELS 3 Zrotation Yrotation Xrotation
											End Site
											{
												OFFSET 0.000000 0.000000 0.000000
											}
										}
									}
								}
								JOINT right_pinky_1
								{
									OFFSET -0.082027 -0.017634 -0.043503
									CHANNELS 3 Zrotation Yrotation Xrotation
									JOINT right_pinky_2
									{
										OFFSET -0.012123 -0.014448 -0.005374
										CHANNELS 3 Zrotation Yrotation Xrotation
										JOINT right_pinky_3
										{
											OFFSET -0.003798 -0.018852 0.000167
											CHANNELS 3 Zrotation Yrotation Xrotation
											End Site
											{
												OFFSET 0.000000 0.000000 0.000000
											}
										}
									}
								}
								JOINT right_ring_1
								{
									OFFSET -0.095423 -0.012362 -0.027099
									CHANNELS 3 Zrotation Yrotation Xrotation
									JOINT right_ring_2
									{
										OFFSET -0.023561 -0.016057 -0.001895
										CHANNELS 3 Zrotation Yrotation Xrotation
										JOINT right_ring_3
										{
											OFFSET -0.004257 -0.023548 0.000816
											CHANNELS 3 Zrotation Yrotation Xrotation
											End Site
											{
												OFFSET 0.000000 0.000000 0.000000
											}
										}
									}
								}
								JOINT right_thumb_1
								{
									OFFSET -0.038613 -0.021074 0.025861
									CHANNELS 3 Zrotation Yrotation Xrotation
									JOINT right_thumb_2
									{
										OFFSET -0.021636 -0.017639 0.011623
										CHANNELS 3 Zrotation Yrotation Xrotation
										JOINT right_thumb_3
										{
											OFFSET -0.024004 -0.008353 0.006547
											CHANNELS 3 Zrotation Yrotation Xrotation
											End Site
											{
												OFFSET 0.000000 0.000000 0.000000
											}
										}
									}
								}
							}
						}
					}
				}
			}
		}
	}
}
MOTION
Frames: 5
Frame Time: 0.050000
0.011760 0.608444 0.017746 -1.211335 0.164152 -30.079135 16.541931 -0.351005 -52.152495 -21.398116 8.960981 81.622297 7.205802 12.408214 -2.603582 0.000000 0.000000 0.000000 -9.803385 2.372494 -57.780043 21.554070 -18.004101 88.055728 -5.745870 -11.421442 0.682937 0.000000 0.000000 0.000000 -8.611728 -0.558824 49.552920 -6.810734 -1.145663 -17.778945 5.477621 2.128101 13.668276 -3.278988 -0.169785 5.974134 0.000000 0.000000 0.000000 9.042790 -7.288673 3.759516 -17.687490 -40.052966 -9.084268 31.289257 -46.076827 -9.198450 12.895383 7.107476 -35.716578 1.354082 2.780451 0.682003 -48.268539 -11.780824 -7.366886 0.000000 0.000000 0.000000 -30.846743 -4.704374 -1.767780 -17.482788 -6.504933 -15.039246 0.000000 0.000000 0.000000 -25.640124 -17.441110 -16.892440 5.667473 -0.643031 -1.648657 0.000000 0.000000 0.000000 -34.390523 -13.846704 -0.583366 -0.243894 -3.857067 -10.908495 0.000000 0.000000 0.000000 29.400210 4.480226 -12.011558 -19.232392 3.197888 6.447736 0.000000 0.000000 0.000000 -3.824052 10.826408 5.222487 20.689232 39.771055 -0.197351 -84.609444 59.304020 -53.799296 -8.887168 -8.662869 -25.169997 2.896199 -5.382410 1.293654 -2.409939 3.966133 -19.328615 0.000000 0.000000 0.000000 17.931145 7.657823 -4.248979 -6.458032 2.724226 -17.828317 0.000000 0.000000 0.000000 -2.178501 18.807481 -26.748205 -10.192242 -0.471698 2.011014 0.000000 0.000000 0.000000 15.477807 13.464253 -6.443925 -13.284637 1.380153 -14.606588 0.000000 0.000000 0.000000 -22.506526 -13.185162 -2.804601 18.097964 3.733762 3.443036 0.000000 0.000000 0.000000 
0.012909 0.607155 0.019066 -1.037390 0.620660 -29.668452 16.879859 -0.336514 -52.202089 -22.073566 9.325764 80.509597 7.933562 13.757958 -2.695298 0.000000 0.000000 0.000000 -10.298252 1.959072 -57.938803 21.945248 -18.469878 87.852034 -5.473392 -10.632970 -0.009304 0.000000 0.000000 0.000000 -8.606234 -0.614587 48.599209 -6.327275 -1.106952 -17.026939 4.888881 2.716175 13.435440 -3.599251 -0.252060 7.057131 0.000000 0.000000 0.000000 8.466515 -7.680444 3.963165 -18.806088 -40.306535 -9.018897 33.615142 -48.067139 -10.854015 12.168705 4.647786 -34.567789 3.110303 0.778804 0.359327 -20.203039 -7.314006 -10.190460 0.000000 0.000000 0.000000 -20.862542 -6.359352 -2.876897 -7.305451 -3.078055 -10.483792 0.000000 0.000000 0.000000 -12.910180 -14.779826 -17.538961 3.229011 0.203839 0.741959 0.000000 0.000000 0.000000 -24.357834 -11.821223 -2.548673 4.339707 -2.036304 -8.565076 0.000000 0.000000 0.000000 28.785362 6.094877 -10.977233 -20.762809 -2.659400 4.803472 0.000000 0.000000 0.000000 -3.294591 11.268317 5.429750 23.691346 39.657518 0.715320 -86.602420 59.922181 -55.695112 -7.458358 -6.888802 -26.494683 2.347033 -3.776126 0.924303 -2.640457 2.667683 -14.280231 0.000000 0.000000 0.000000 16.644136 6.324905 -3.829995 -6.239891 1.711658 -12.064387 0.000000 0.000000 0.000000 0.106993 16.281051 -22.986548 -9.504295 -0.862904 3.661341 0.000000 0.000000 0.000000 15.357342 10.725169 -5.066801 -12.637781 0.662873 -10.068836 0.000000 0.000000 0.000000 -22.390150 -11.637049 -4.120881 17.823132 3.178258 3.535749 0.000000 0.000000 0.000000 
0.014720 0.607155 0.021706 -0.888625 1.206645 -30.151056 17.002404 -0.443646 -51.300721 -23.687081 10.547105 79.892936 8.988570 15.712408 -2.812305 0.000000 0.000000 0.000000 -11.014806 1.332455 -56.900605 22.785932 -19.490927 87.864436 -5.335341 -10.233560 -0.340340 0.000000 0.000000 0.000000 -7.576482 -1.044881 49.302769 -7.506311 -0.785278 -17.767210 5.340391 2.368661 14.101546 -3.293747 -0.315777 7.023788 0.000000 0.000000 0.000000 9.222690 -7.531775 3.911872 -21.205174 -42.535794 -8.871179 34.275893 -49.010073 -11.347488 12.671259 4.494259 -33.499260 1.888533 0.876352 0.317676 -11.058662 -3.769425 -7.589650 0.000000 0.000000 0.000000 -18.420036 -4.906929 -2.557289 -5.015575 -2.707335 -10.296915 0.000000 0.000000 0.000000 -7.331580 -13.091744 -16.669147 2.331809 0.352523 1.100725 0.000000 0.000000 0.000000 -19.656175 -10.270228 -3.020663 3.619187 -1.709826 -7.539075 0.000000 0.000000 0.000000 27.211165 5.023629 -11.160693 -20.022138 -1.227262 4.999991 0.000000 0.000000 0.000000 -2.900448 10.600527 5.118109 26.610580 40.776658 1.601538 -87.723493 61.006376 -57.828524 -6.798794 -5.134036 -27.817297 2.788731 -4.445589 1.021123 -1.053044 2.000679 -11.187108 0.000000 0.000000 0.000000 17.598353 4.446031 -3.135888 -6.427734 1.265300 -10.047834 0.000000 0.000000 0.000000 -0.496725 13.461277 -19.456524 -8.503757 -0.719666 2.967399 0.000000 0.000000 0.000000 15.441894 8.646777 -3.934537 -11.979762 0.682708 -9.173400 0.000000 0.000000 0.000000 -21.267761 -9.974901 -5.152054 17.506066 1.577507 3.863032 0.000000 0.000000 0.000000 
0.017193 0.607155 0.021706 -0.615876 1.283395 -30.147771 17.090472 -0.407409 -50.828873 -25.009328 11.634545 78.897138 9.219558 15.797960 -3.621924 0.000000 0.000000 0.000000 -11.890411 0.848722 -56.563181 23.960745 -20.221530 86.629540 -5.656682 -11.257121 0.718699 0.000000 0.000000 0.000000 -6.515743 -1.398057 49.420083 -7.829979 -0.662501 -17.854761 4.591502 1.852364 13.866085 -2.925324 -0.472627 7.569858 0.000000 0.000000 0.000000 9.036245 -8.410848 4.200599 -21.311150 -42.827055 -8.797145 35.121831 -49.857848 -11.915308 12.620523 5.181190 -34.167443 -0.594573 0.445230 0.281702 -25.868110 -6.900806 -7.722806 0.000000 0.000000 0.000000 -24.449598 -6.303621 -2.543250 -8.064331 -3.287221 -11.410248 0.000000 0.000000 0.000000 -12.958318 -12.729337 -15.069379 1.516224 -0.925036 -2.537904 0.000000 0.000000 0.000000 -26.897099 -11.498034 -1.685848 4.100616 -2.043149 -8.710967 0.000000 0.000000 0.000000 27.337304 3.407129 -12.129232 -19.575318 1.856393 5.926633 0.000000 0.000000 0.000000 -2.438905 10.847149 5.260846 29.685431 41.576619 2.495080 -91.532267 62.932678 -63.400011 -7.012586 -6.438954 -24.725672 2.470721 -3.648895 0.902017 -2.440411 2.529464 -13.994964 0.000000 0.000000 0.000000 16.169039 5.705520 -3.725558 -6.137761 2.006700 -13.369663 0.000000 0.000000 0.000000 -1.111606 14.417626 -20.566136 -8.576825 -0.475200 1.986722 0.000000 0.000000 0.000000 14.460070 9.624715 -4.775120 -11.542601 1.104099 -11.478084 0.000000 0.000000 0.000000 -19.655912 -9.268449 -4.770138 16.159054 2.113277 3.337313 0.000000 0.000000 0.000000 
0.019136 0.607155 0.017746 -0.241935 1.774070 -30.319017 16.482643 -0.815327 -50.334033 -25.556870 11.818366 77.968311 9.228146 15.918042 -3.392305 0.000000 0.000000 0.000000 -12.339939 0.447603 -56.186125 22.477339 -19.211476 87.867288 -5.306584 -10.024253 -0.680799 0.000000 0.000000 0.000000 -7.534137 -1.127317 50.607902 -7.053098 -1.204674 -18.716518 6.036161 2.940432 14.594309 -2.667483 -0.344700 6.099313 0.000000 0.000000 0.000000 7.697397 -8.728174 4.365756 -20.962632 -44.090073 -9.300717 36.977146 -51.708125 -13.620217 11.357231 5.680985 -32.830912 1.793534 1.356599 0.419257 -15.015929 -6.249618 -11.717702 0.000000 0.000000 0.000000 -18.845533 -6.104247 -2.991864 -7.174316 -3.963338 -12.788094 0.000000 0.000000 0.000000 -9.486758 -12.637308 -15.697689 2.640571 -0.557136 -1.554664 0.000000 0.000000 0.000000 -20.482392 -9.770756 -2.670315 0.820856 -3.218838 -10.351759 0.000000 0.000000 0.000000 27.823849 5.456583 -11.157246 -19.124250 0.348123 5.222123 0.000000 0.000000 0.000000 -3.145928 9.821069 4.717088 31.895569 43.218792 3.664285 -92.371215 64.137945 -65.155322 -7.770528 -5.550806 -22.898831 3.179318 -4.223221 1.051391 -2.337945 3.441260 -17.983443 0.000000 0.000000 0.000000 16.899489 6.072014 -3.901607 -5.520439 2.543893 -15.847386 0.000000 0.000000 0.000000 -0.210315 15.126904 -21.287212 -7.943750 -0.132586 0.578438 0.000000 0.000000 0.000000 15.888870 10.738558 -5.197710 -11.690890 1.506052 -13.935835 0.000000 0.000000 0.000000 -18.905316 -9.675256 -4.006847 16.037994 2.279919 3.239823 0.000000 0.000000 0.000000 
